<svg width="119" height="66" viewBox="0 0 119 66" fill="none" xmlns="http://www.w3.org/2000/svg">
<path d="M23.2302 4.86315C22.4404 5.65052 22.6727 7.54947 23.6252 8.01262C23.8575 8.12841 30.6873 8.26736 38.7949 8.33683C53.0819 8.45263 53.5697 8.47578 54.1737 8.91578C56.1251 10.3747 55.9393 13.3853 53.8485 14.52C53.1283 14.9137 51.8274 14.9368 32.9872 15.0063L12.9158 15.0526L12.3814 15.5621C11.8471 16.0484 11.6845 17.1137 11.9865 17.9474C12.4047 19.0126 11.9633 18.9895 37.0526 18.9895C62.6298 18.9895 61.2359 18.92 62.4671 20.24C62.8853 20.68 63.0479 21.1663 63.1176 22.0463C63.2338 23.5979 62.653 24.6168 61.2591 25.2421C60.3299 25.6821 59.5865 25.7053 46.0894 25.7053H31.8954L31.4075 26.2379C30.757 26.9095 30.7338 28.2295 31.3378 28.9705L31.7792 29.5263L39.0737 29.6421C46.8792 29.7579 46.856 29.7579 47.9479 31.0547C49.1791 32.5137 48.5519 34.9453 46.6934 35.9179C45.9268 36.3347 45.0672 36.3579 31.6863 36.3579C17.6781 36.3579 17.469 36.3579 16.865 36.8442C16.1216 37.4463 16.0287 38.7895 16.7024 39.6231C17.1438 40.1789 17.2367 40.1789 22.1152 40.2947C27.737 40.4337 27.9461 40.48 28.8289 42.2863C29.4329 43.5368 29.2935 44.5789 28.4107 45.6442C27.3886 46.8484 26.6916 47.0105 22.4172 47.0105H18.5376L17.8407 47.7053C17.2599 48.3074 17.167 48.5389 17.2832 49.1642C17.5619 50.5305 18.0962 50.8084 20.6284 50.9474L22.8818 51.0631L22.9515 52.8463L23.0212 54.6526H25.5533H28.1087L28.2481 54.0042C29.247 49.4653 32.6852 46.5242 37.0526 46.5242C41.4432 46.5242 44.8349 49.4189 45.8571 54.0042L45.9965 54.6526H63.4196H80.8195L80.9821 53.7726C81.2609 52.221 82.3992 50.1368 83.6304 49.0021C87.9978 44.9263 94.7813 45.9916 97.5457 51.1789C97.9639 51.9431 98.3588 53.0084 98.4517 53.541L98.6376 54.5368L101.658 54.6063L104.701 54.6758L104.98 52.6147C105.375 49.4884 105.607 49.7895 102.703 49.7895C99.4274 49.7895 99.4971 49.8821 99.8688 46.4779C100.031 45.0653 100.264 43.7684 100.403 43.6063C100.566 43.3979 101.425 43.3053 103.353 43.3053H106.048L106.583 38.6042C106.861 36.0337 107.094 33.7874 107.094 33.6484C107.094 33.4168 104.608 33.3474 95.8963 33.301L84.6758 33.2316L84.6061 32.5831C84.49 31.6105 85.9768 18.92 86.2555 18.5726C86.4182 18.3642 88.0675 18.2947 93.0854 18.2947H99.7062L98.8002 16.6274C97.3366 13.9179 97.778 14.0337 88.1605 13.941L80.0297 13.8716L78.357 28.5305C76.94 40.9663 76.6147 43.2126 76.2895 43.4674C75.9643 43.6989 72.7352 43.7684 61.3288 43.7684C45.9965 43.7684 45.6945 43.7453 46.0662 42.7495C46.2056 42.4021 47.4833 42.3789 60.8642 42.3789C74.8724 42.3789 75.4997 42.3558 75.4997 41.9621C75.4997 41.7305 76.4521 33.301 77.5904 23.2505C78.752 13.2 79.6812 4.86315 79.6812 4.70105C79.6812 4.46947 74.129 4.39999 51.688 4.39999C23.9969 4.39999 23.6949 4.39999 23.2302 4.86315Z" fill="url(#paint0_linear_672_1037)"/>
<path d="M87.2541 20.4254C87.0914 21.3054 85.9531 31.3327 85.9531 31.7033C85.9531 31.8885 88.9731 31.958 96.2909 31.958C103.237 31.958 106.629 31.8885 106.629 31.7264C106.629 31.5875 105.235 28.8317 103.562 25.5896L100.472 19.6843H93.9213H87.3702L87.2541 20.4254Z" fill="url(#paint1_linear_672_1037)"/>
<path d="M12.3575 26.2379C11.707 26.9095 11.6838 28.2295 12.2878 28.9706C12.7292 29.5264 12.7756 29.5264 17.538 29.5264C22.3003 29.5264 22.3467 29.5264 22.7881 28.9706C23.4154 28.2064 23.3689 26.8401 22.6952 26.2148C22.1841 25.7285 21.9518 25.7053 17.5147 25.7053C12.9382 25.7053 12.8453 25.7053 12.3575 26.2379Z" fill="url(#paint2_linear_672_1037)"/>
<path d="M101.426 45.0883C101.38 45.3199 101.24 46.1536 101.17 46.941L101.008 48.3999H103.215H105.422L105.584 47.1725C105.654 46.5241 105.77 45.6904 105.84 45.3199L105.979 44.6946H103.749C101.844 44.6946 101.542 44.741 101.426 45.0883Z" fill="url(#paint3_linear_672_1037)"/>
<path d="M35.8895 47.96C33.4967 48.261 31.1737 49.9979 30.105 52.3137C29.7333 53.1242 29.6172 53.8421 29.6172 55.3474C29.6172 57.0379 29.7101 57.501 30.2677 58.6358C30.9646 60.0716 32.1958 61.2989 33.729 62.1095C34.5886 62.5726 35.0764 62.6421 37.0511 62.6421C39.0257 62.6421 39.5135 62.5726 40.3731 62.1095C41.9063 61.2989 43.1375 60.0716 43.8345 58.6358C44.392 57.501 44.4849 57.0379 44.4849 55.3474C44.4849 53.8421 44.3688 53.1242 43.9971 52.3137C42.5568 49.2105 39.3974 47.52 35.8895 47.96ZM38.7701 52.1052C41.372 53.4252 41.3952 57.1074 38.8398 58.5431C36.3774 59.9095 33.3574 58.1495 33.3574 55.3474C33.3574 52.5684 36.2612 50.8316 38.7701 52.1052Z" fill="url(#paint4_linear_672_1037)"/>
<path d="M35.4742 53.5875C34.7076 54.3054 34.4985 55.1159 34.8469 56.158C35.3348 57.6401 37.472 58.1728 38.6336 57.1075C40.283 55.5791 39.3073 53.0317 37.0539 53.0317C36.3337 53.0317 35.9156 53.1938 35.4742 53.5875Z" fill="url(#paint5_linear_672_1037)"/>
<path d="M88.6239 47.9602C86.9513 48.1686 85.8827 48.6781 84.5817 49.9054C82.9556 51.4339 82.3516 52.8696 82.3516 55.3475C82.3516 56.876 82.4677 57.5475 82.8626 58.4044C83.606 60.0254 85.0463 61.4381 86.6725 62.1791C87.9734 62.7581 88.2987 62.8044 90.1107 62.7117C93.1771 62.5496 95.2214 61.276 96.5224 58.6591C97.1031 57.5012 97.1961 57.0381 97.2193 55.3475C97.2193 53.657 97.1264 53.1939 96.5688 52.0591C95.1285 49.1181 92.0388 47.5202 88.6239 47.9602ZM91.5045 52.1286C92.5499 52.7539 93.0842 53.4254 93.3398 54.4907C93.9205 56.6675 92.0621 59.0528 89.7854 59.0528C88.0431 59.0528 86.3937 57.6402 86.0453 55.8339C85.8827 55.0002 86.4402 53.2865 87.0674 52.7307C88.3451 51.5728 90.1804 51.3181 91.5045 52.1286Z" fill="url(#paint6_linear_672_1037)"/>
<path d="M88.1608 53.5873C86.674 55.0926 87.5336 57.6631 89.5314 57.6631C91.1344 57.6631 92.0636 56.8062 92.0636 55.3473C92.0636 53.8883 91.1344 53.0315 89.5314 53.0315C88.9739 53.0315 88.5325 53.2168 88.1608 53.5873Z" fill="url(#paint7_linear_672_1037)"/>
<defs>
<linearGradient id="paint0_linear_672_1037" x1="59.4648" y1="54.6758" x2="59.4648" y2="4.39999" gradientUnits="userSpaceOnUse">
<stop stop-color="#5A5B63"/>
<stop offset="1" stop-color="#38A541"/>
</linearGradient>
<linearGradient id="paint1_linear_672_1037" x1="96.2909" y1="31.958" x2="96.2909" y2="19.6843" gradientUnits="userSpaceOnUse">
<stop stop-color="#5A5B63"/>
<stop offset="1" stop-color="#38A541"/>
</linearGradient>
<linearGradient id="paint2_linear_672_1037" x1="17.5412" y1="29.5264" x2="17.5412" y2="25.7053" gradientUnits="userSpaceOnUse">
<stop stop-color="#5A5B63"/>
<stop offset="1" stop-color="#38A541"/>
</linearGradient>
<linearGradient id="paint3_linear_672_1037" x1="103.494" y1="48.3999" x2="103.494" y2="44.6946" gradientUnits="userSpaceOnUse">
<stop stop-color="#5A5B63"/>
<stop offset="1" stop-color="#38A541"/>
</linearGradient>
<linearGradient id="paint4_linear_672_1037" x1="37.0511" y1="62.6421" x2="37.0511" y2="47.891" gradientUnits="userSpaceOnUse">
<stop stop-color="#5A5B63"/>
<stop offset="1" stop-color="#38A541"/>
</linearGradient>
<linearGradient id="paint5_linear_672_1037" x1="37.0711" y1="57.667" x2="37.0711" y2="53.0317" gradientUnits="userSpaceOnUse">
<stop stop-color="#5A5B63"/>
<stop offset="1" stop-color="#38A541"/>
</linearGradient>
<linearGradient id="paint6_linear_672_1037" x1="89.7854" y1="62.749" x2="89.7854" y2="47.888" gradientUnits="userSpaceOnUse">
<stop stop-color="#5A5B63"/>
<stop offset="1" stop-color="#38A541"/>
</linearGradient>
<linearGradient id="paint7_linear_672_1037" x1="89.7369" y1="57.6631" x2="89.7369" y2="53.0315" gradientUnits="userSpaceOnUse">
<stop stop-color="#5A5B63"/>
<stop offset="1" stop-color="#38A541"/>
</linearGradient>
</defs>
</svg>
