<svg width="60" height="60" viewBox="0 0 60 60" fill="none" xmlns="http://www.w3.org/2000/svg">
<g clip-path="url(#clip0_672_801)">
<path d="M27.7715 0.581997C25.0527 0.839809 22.9785 1.23825 20.8574 1.92965C16.2051 3.44137 12.4316 5.73825 8.91602 9.207C4.08789 13.9765 1.16992 19.8593 0.220703 26.75C0.00976562 28.2148 0.00976562 32.7851 0.220703 34.25C1.45117 43.1797 6.20898 50.7617 13.6504 55.6484C23.4941 62.1172 36.5723 62.0937 46.4277 55.6015C54.1035 50.5273 59.0254 42.3359 59.8691 33.1953C60.1387 30.2656 59.9863 29.4453 59.0605 28.9765C58.4746 28.6836 58.0059 28.6836 57.4199 28.9765C56.7871 29.3047 56.4824 29.914 56.4824 30.875C56.4824 34.3554 55.4629 38.6445 53.8574 41.9375C51.1855 47.4336 47.1309 51.5234 41.7051 54.2187C31.8027 59.1406 19.9199 57.3593 11.7988 49.7187C9.51367 47.5625 7.73242 45.1484 6.2793 42.207C1.32227 32.2461 3.15039 20.3164 10.8613 12.2187C18.7363 3.94528 31.2285 1.67184 41.4473 6.65231C42.9121 7.35543 45.3496 8.79684 45.3496 8.94918C45.3496 8.98434 44.8105 9.07809 44.1543 9.16012C43.4863 9.24215 42.7715 9.3945 42.5605 9.48825C41.2832 10.0976 41.3184 12.0195 42.6191 12.5937L43.1582 12.8281L46.627 12.3945C50.5059 11.914 50.752 11.8437 51.1973 11.0468L51.4785 10.5429L51.1621 7.01559C50.8105 2.99606 50.7637 2.832 49.8848 2.3984C49.1934 2.04684 48.5605 2.12887 47.9746 2.63278C47.4238 3.11325 47.3184 3.61715 47.459 4.96481C47.5176 5.56247 47.5527 6.06637 47.541 6.08981C47.5176 6.10153 47.1895 5.90231 46.8145 5.6445C41.7754 2.25778 35.7637 0.453091 29.7637 0.523403C28.8965 0.523403 27.9941 0.558559 27.7715 0.581997Z" fill="#539158"/>
<path d="M14.5898 22.2969C14.1211 22.4023 13.8281 22.5664 13.5117 22.9062C13.1836 23.2578 8.08594 36.582 8.08594 37.0859C8.08594 37.6484 8.53125 38.3164 9.08203 38.5859C9.69141 38.8789 9.99609 38.8789 10.6289 38.5742C11.0508 38.375 11.1914 38.2109 11.4727 37.6133C11.6484 37.2148 11.9062 36.6054 12.0234 36.2656L12.2344 35.6562H15H17.7656L17.9766 36.2656C18.0938 36.6054 18.3516 37.2148 18.5273 37.6133C18.8086 38.2109 18.9492 38.375 19.3711 38.5742C20.0039 38.8789 20.3086 38.8789 20.918 38.5859C21.4688 38.3164 21.9141 37.6484 21.9141 37.0859C21.9141 36.7929 17.2617 24.207 16.8633 23.4453C16.418 22.5664 15.4688 22.0976 14.5898 22.2969ZM15.75 30.3476C16.0898 31.2617 16.3477 32.0469 16.3125 32.082C16.2773 32.1172 15.6797 32.1406 14.9766 32.1406C13.9922 32.1406 13.7109 32.1054 13.7109 31.9883C13.7109 31.8359 14.8359 28.8008 14.9766 28.5664C15.0234 28.4961 15.0586 28.4961 15.082 28.5664C15.1055 28.6367 15.3984 29.4336 15.75 30.3476Z" fill="#539158"/>
<path d="M30.724 22.3086C30.3841 22.3672 29.6927 22.5664 29.1888 22.7656C25.8373 24.0547 23.7396 27.3477 23.9388 30.9688C24.1732 35.3633 27.7357 38.7148 32.1654 38.7148C34.3099 38.7148 35.7396 38.1406 37.2162 36.6641C38.2943 35.5859 38.8568 34.5898 39.267 33.0078C39.5834 31.7422 39.6185 30.1016 39.3373 29.6211C38.8451 28.8242 38.7513 28.8008 35.974 28.7656C33.5013 28.7305 33.4427 28.7305 33.056 29C32.4115 29.4336 32.1771 29.832 32.1771 30.4883C32.1771 30.9336 32.2474 31.1563 32.4935 31.4844C32.974 32.1055 33.2084 32.1875 34.6029 32.2578L35.8568 32.3164L35.517 33.0313C35.0951 33.9336 34.5795 34.5195 33.9232 34.8359C32.3646 35.5859 30.3138 35.2344 28.9545 33.957C27.8295 32.9023 27.349 31.6602 27.4545 30.1133C27.6068 27.9336 29.2005 26.1992 31.4271 25.7773C32.388 25.6016 33.4545 25.8008 34.5091 26.3398C35.7396 26.9844 36.6654 26.8906 37.2513 26.0703C37.8959 25.168 37.556 24.043 36.4427 23.375C34.7787 22.3789 32.6576 21.9922 30.724 22.3086Z" fill="#539158"/>
<path d="M44.0592 22.4258C43.5202 22.6367 43.1335 23.1172 43.0045 23.75C42.9108 24.1602 42.8874 26.4102 42.9108 30.9102L42.946 37.4727L43.2155 37.8945C43.6842 38.668 43.8717 38.7031 47.4928 38.7031C50.6335 38.7031 50.7155 38.7031 51.1022 38.4336C52.1686 37.7187 52.1452 36.3125 51.0436 35.4922C50.7506 35.2695 50.528 35.2461 48.5592 35.2109L46.3913 35.1641L46.4264 33.7461L46.4616 32.3164L48.4186 32.2578C50.528 32.1992 50.692 32.1406 51.2428 31.4141C51.7233 30.7812 51.4538 29.6094 50.7038 29.0469C50.3991 28.8242 50.1881 28.8008 48.3835 28.7656L46.403 28.7305V27.2656V25.8125H48.3952C50.7741 25.8125 51.1725 25.707 51.6178 24.9336C51.9811 24.3242 51.9811 23.7852 51.6413 23.1875C51.1491 22.332 50.985 22.2969 47.4577 22.3086C45.6999 22.3086 44.2233 22.3672 44.0592 22.4258Z" fill="#539158"/>
</g>
<defs>
<clipPath id="clip0_672_801">
<rect width="60" height="60" fill="white"/>
</clipPath>
</defs>
</svg>
