<svg width="60" height="60" viewBox="0 0 60 60" fill="none" xmlns="http://www.w3.org/2000/svg">
<path d="M4.98145 9.45704C2.50879 9.76172 0.504883 11.6484 0.118164 14.0156C-0.0341797 14.9414 -0.0341797 45.0586 0.118164 45.9844C0.446289 48.0352 2.08691 49.8281 4.16113 50.4023C5.04004 50.6484 54.9619 50.6484 55.8408 50.4023C57.915 49.8281 59.5557 48.0352 59.8838 45.9844C60.0361 45.0586 60.0361 14.9414 59.8838 14.0156C59.5674 12.0469 58.0908 10.3594 56.0518 9.63282C55.5244 9.45704 53.6963 9.4336 30.4111 9.42188C16.6182 9.41016 5.18066 9.4336 4.98145 9.45704ZM55.4307 13.125C55.9814 13.4063 56.3213 13.8633 56.4736 14.543C56.6377 15.2461 56.6377 44.7539 56.4736 45.457C56.3213 46.1367 55.9814 46.5938 55.4307 46.875C54.9736 47.1094 54.6455 47.1094 30.001 47.1094C5.35645 47.1094 5.02832 47.1094 4.57129 46.875C4.02051 46.5938 3.68066 46.1367 3.52832 45.457C3.36426 44.7539 3.36426 15.2461 3.52832 14.543C3.68066 13.875 4.02051 13.4063 4.54785 13.125C4.96973 12.9023 5.47363 12.9023 29.9775 12.8906C54.6455 12.8906 54.9736 12.8906 55.4307 13.125Z" fill="#539158"/>
<path d="M18.6341 16.5118C15.8333 16.8985 13.4192 19.0782 12.7161 21.8555C12.3411 23.3321 12.6106 25.5352 13.3138 26.836C14.1341 28.3477 15.681 29.6836 17.2396 30.2344C18.2825 30.5977 20.2747 30.6915 21.3177 30.4102C22.5716 30.0821 23.638 29.4727 24.5638 28.5469C26.0403 27.0586 26.6497 25.5938 26.6497 23.5547C26.6497 21.4454 25.97 19.875 24.4114 18.3985C22.8646 16.9219 20.7317 16.2305 18.6341 16.5118ZM20.9192 20.168C21.7864 20.4961 22.6302 21.3399 22.9583 22.2071C23.5911 23.8829 22.9935 25.6993 21.4935 26.625C19.6419 27.7852 17.1575 27 16.2552 24.9727C15.9153 24.2227 15.9153 22.875 16.2552 22.1368C16.7005 21.1524 17.6146 20.3438 18.6341 20.0274C19.2083 19.8516 20.2513 19.9219 20.9192 20.168Z" fill="#539158"/>
<path d="M33.5505 19.3008C33.1637 19.3711 32.6247 19.9688 32.5309 20.4023C32.4255 20.9297 32.7653 21.5625 33.2809 21.8203C33.6559 22.0195 34.3122 22.0312 41.8122 22.0312C48.9723 22.0312 49.9919 22.0078 50.3317 21.8438C50.7419 21.6445 51.0934 21.082 51.0934 20.5898C51.0934 20.1562 50.613 19.5352 50.1559 19.3711C49.8512 19.2656 47.6716 19.2305 41.777 19.2422C37.3942 19.2422 33.6911 19.2773 33.5505 19.3008Z" fill="#539158"/>
<path d="M39.1875 27.7031C38.8594 28.0312 38.7891 28.1953 38.7891 28.582C38.7891 28.8516 38.8711 29.2031 38.9766 29.3672C39.3984 30 39.4219 30 44.9414 30C49.4766 30 50.0977 29.9766 50.3906 29.8125C51.0352 29.4258 51.2578 28.6758 50.9297 28.0195C50.543 27.293 50.6836 27.3047 44.8711 27.3047H39.5859L39.1875 27.7031Z" fill="#539158"/>
<path d="M15.9961 31.9921C15.1289 32.1093 14.1094 32.4609 13.3828 32.8828C12.4453 33.4218 11.2266 34.746 10.7344 35.7421C10.0899 37.0546 9.93754 38.0038 9.98441 40.3945C10.0196 42.5859 10.0664 42.7265 10.8164 43.289C11.2618 43.6171 12.1407 43.6054 12.6328 43.2538C13.336 42.7617 13.4063 42.4804 13.4766 40.0195C13.5469 37.4999 13.6289 37.2304 14.5547 36.3281C15.4922 35.4374 15.8321 35.3788 19.793 35.414C23.1211 35.4492 23.2852 35.4609 23.8008 35.7187C24.4571 36.0351 25.1368 36.6913 25.4649 37.3242C25.6875 37.7343 25.7227 38.0507 25.7813 40.1015C25.8516 42.621 25.875 42.7148 26.6368 43.289C27.0703 43.6054 28.0078 43.6054 28.4414 43.289C29.2266 42.7031 29.2383 42.6328 29.2383 40.0429C29.2383 38.0859 29.2032 37.5585 29.0157 36.9726C28.3477 34.746 26.6368 32.9882 24.4336 32.2617C23.5196 31.957 23.4141 31.957 20.0977 31.9218C18.2344 31.9101 16.3828 31.9335 15.9961 31.9921Z" fill="#539158"/>
<path d="M39.7874 32.6719C38.9202 32.9648 38.5452 33.8672 38.9554 34.6641C39.2952 35.332 39.2952 35.332 45.014 35.332H50.2757L50.6507 34.9453C50.9788 34.6172 51.0374 34.4883 51.0374 33.9961C51.0374 33.3047 50.7093 32.8828 50.0531 32.6953C49.5843 32.5664 40.1742 32.5547 39.7874 32.6719Z" fill="#539158"/>
<path d="M33.2809 38.1796C32.7653 38.4374 32.4255 39.0702 32.5309 39.5976C32.6364 40.078 33.1637 40.6054 33.6442 40.7108C33.8434 40.746 37.5583 40.7811 41.8825 40.7694C47.6598 40.7694 49.8512 40.7343 50.1559 40.6288C50.613 40.4647 51.0934 39.8436 51.0934 39.4101C51.0934 38.9179 50.7419 38.3554 50.3317 38.1561C49.9919 37.9921 48.9723 37.9686 41.8122 37.9686C34.3122 37.9686 33.6559 37.9804 33.2809 38.1796Z" fill="#539158"/>
</svg>
