<svg width="60" height="60" viewBox="0 0 60 60" fill="none" xmlns="http://www.w3.org/2000/svg">
<path d="M15.713 3.293C12.0216 4.01957 9.05675 6.97269 8.29503 10.6641C8.06066 11.8008 8.07238 50.6133 8.30675 51.5625C8.76378 53.4258 10.17 55.2422 11.7872 56.0508C13.463 56.8946 12.1271 56.8477 31.3693 56.8125L48.6896 56.7774L49.3575 56.4493C50.2247 56.0274 51.2208 54.9493 51.5841 54.0586L51.8536 53.3789V30V6.62113L51.5841 5.94144C51.2208 5.05082 50.2247 3.97269 49.3575 3.55082L48.6896 3.22269L32.4591 3.21097C23.5294 3.19925 15.9943 3.23441 15.713 3.293ZM47.9747 7.17191C48.1388 7.40628 48.1622 9.31644 48.1622 25.2774V43.125L30.9122 43.1485L13.6505 43.1836L12.8185 43.5C12.3614 43.6875 11.9513 43.8282 11.9044 43.8282C11.7755 43.8282 11.8224 12.4336 11.963 11.6016C12.3028 9.50394 13.9669 7.6641 16.0528 7.07816C16.463 6.96097 20.0255 6.92582 32.1896 6.92582L47.7989 6.9141L47.9747 7.17191ZM48.1622 49.7227C48.1622 52.1016 48.1271 52.6055 47.9747 52.8282L47.7989 53.086H31.1349C20.0138 53.086 14.3302 53.0391 14.0372 52.9688C13.3341 52.7696 12.6427 52.1602 12.2443 51.3868C11.3536 49.6407 12.256 47.5664 14.1778 46.9805C14.3419 46.9336 22.0528 46.8868 31.3224 46.8868L48.1622 46.875V49.7227Z" fill="#539158"/>
<path d="M29.519 15.6914C29.0034 15.8555 28.6518 16.1484 28.3823 16.6289C28.1362 17.0625 28.1245 17.2148 28.1245 20.0742V23.0742L25.0542 23.1094C22.1128 23.1445 21.9487 23.1562 21.562 23.4023C20.9526 23.7773 20.5776 24.5039 20.6596 25.1602C20.7182 25.7578 20.9995 26.1914 21.562 26.5664C21.937 26.8242 22.0307 26.8359 25.0307 26.8359H28.1128L28.1479 29.9883C28.1831 32.9766 28.1948 33.1641 28.4292 33.4805C28.8393 34.043 29.3901 34.3359 29.9995 34.3359C30.6089 34.3359 31.1596 34.043 31.5698 33.4805C31.8042 33.1641 31.8159 32.9766 31.8511 29.9883L31.8862 26.8359H34.9682C37.9682 26.8359 38.062 26.8242 38.437 26.5664C38.9878 26.2031 39.269 25.7812 39.3393 25.2188C39.4214 24.5742 39.0346 23.7773 38.4604 23.4141C38.0386 23.1562 37.9214 23.1445 34.9565 23.1094L31.8745 23.0742V20.1328C31.8745 17.3906 31.8628 17.1445 31.6284 16.6875C31.2534 15.9023 30.2925 15.457 29.519 15.6914Z" fill="#539158"/>
</svg>
