<svg width="20" height="20" viewBox="0 0 20 20" fill="none" xmlns="http://www.w3.org/2000/svg">
<path d="M12.6349 3.03131C12.3107 3.19928 12.17 3.51569 12.2638 3.87116C12.3029 4.02741 12.5529 4.28913 14.9122 6.6485L17.5177 9.25788H9.09974C4.18567 9.25788 0.619267 9.2735 0.529424 9.29694C0.193486 9.37116 0.0255175 9.586 0.0059863 9.95319C-0.0018262 10.168 0.00989254 10.2423 0.0841113 10.3673C0.193486 10.5548 0.330205 10.6602 0.529424 10.7032C0.619267 10.7266 4.18567 10.7423 9.09974 10.7423H17.5177L14.9865 13.2462C13.4357 14.7813 12.4161 15.8204 12.3536 15.9298C12.2716 16.0704 12.2443 16.1602 12.2482 16.3282C12.2482 16.586 12.3302 16.754 12.5216 16.9024C12.7052 17.0391 13.0763 17.0743 13.2833 16.9727C13.463 16.8829 19.8263 10.5274 19.924 10.3438C19.9669 10.254 19.9982 10.1212 19.9982 10.0001C19.9982 9.87897 19.9669 9.74616 19.924 9.65631C19.8302 9.47663 13.463 3.11725 13.2911 3.03131C13.131 2.95319 12.7872 2.95319 12.6349 3.03131Z" fill="#89C98E"/>
</svg>
