<svg width="153" height="153" viewBox="0 0 153 153" fill="none" xmlns="http://www.w3.org/2000/svg">
<g opacity="0.07">
<path d="M40.4006 13.4772C35.6791 14.284 31.2863 16.5252 27.9395 19.8422C24.5029 23.2488 21.3652 28.5082 18.7953 35.1123C16.823 40.282 3.61484 71.659 2.53906 73.8105C2.00117 74.8863 1.22422 76.7689 0.835742 77.9941C0.17832 80.1158 0.148438 80.6537 0.148438 88.3037C0.148438 92.7264 0.17832 97.0295 0.17832 97.8662C0.17832 98.673 0.17832 107.16 0.17832 116.692L0.148438 134.024L0.805859 135.25C1.73223 136.983 3.1666 138.328 4.92969 139.134C6.39395 139.822 6.57324 139.852 16.315 139.852C27.3119 139.852 27.9395 139.762 30.1209 137.879C30.7783 137.312 31.6748 136.176 32.0932 135.309L32.8701 133.755V125.149V116.543H76.9473H120.995L121.084 125.269C121.174 135.04 121.234 135.279 123.415 137.461C125.626 139.672 125.686 139.702 136.653 139.792C146.425 139.881 146.485 139.881 148.009 139.164C149.831 138.328 151.266 136.983 152.192 135.25C152.85 134.024 152.85 133.995 152.85 116.842C152.85 107.399 152.82 99.2408 152.79 98.7627C152.73 98.2547 152.79 94.3998 152.879 90.1564C153.059 81.9984 152.879 79.9066 151.744 76.7988C151.415 75.9023 151.027 74.6473 150.877 74.0197C150.728 73.4221 147.65 65.6227 144.064 56.6877C140.448 47.7826 136.952 38.9373 136.265 37.0547C131.244 23.2787 125.328 16.5551 115.944 13.8656C114.092 13.3277 112.089 13.2979 77.9932 13.268C57.7326 13.2381 41.2971 13.3277 40.4006 13.4772ZM114.45 24.2947C116.691 25.1613 118.903 26.8945 120.636 29.1059C122.369 31.3471 125.178 36.8156 126.553 40.7303C127.001 41.9854 129.511 47.3643 132.141 52.6535C134.741 57.9129 136.832 62.2758 136.803 62.3057C136.743 62.3654 135.697 62.1264 134.472 61.8275C133.246 61.4988 130.945 61.1104 129.392 60.9609C125.626 60.5725 27.3717 60.5725 23.6064 60.9609C22.0525 61.1104 19.9607 61.4391 19.0045 61.708C18.0482 61.9471 17.2115 62.1264 17.1518 62.0666C17.092 62.0367 19.2137 57.8232 21.8732 52.7432C24.5029 47.6332 27.4016 41.6566 28.298 39.4453C32.123 29.9127 35.3504 25.759 40.2213 24.2051C41.9246 23.6672 43.359 23.6373 77.5449 23.6971C110.834 23.7568 113.195 23.7867 114.45 24.2947ZM37.9203 86.8096C38.4881 87.1383 39.3547 87.9152 39.8627 88.5428C40.6994 89.6186 40.7891 89.8875 40.7891 91.8897C40.7891 93.8918 40.6994 94.1906 39.8627 95.2365C39.3846 95.8641 38.3686 96.6709 37.6514 97.0295C36.3664 97.6869 36.0975 97.7168 26.4453 97.7168H16.5541L15.0002 96.9398C10.7568 94.8182 10.7568 88.9611 15.0002 86.8395L16.584 86.0326L26.7441 86.1223C36.2768 86.2119 36.9641 86.2418 37.9203 86.8096ZM136.623 86.3613C138.954 87.0188 140.747 89.4393 140.747 91.8897C140.747 94.34 138.954 96.7605 136.623 97.418C135.039 97.8363 116.93 97.8064 115.616 97.3582C114.032 96.8203 112.986 95.9836 112.299 94.6389C110.775 91.7104 111.94 88.1543 114.839 86.7797C116.363 86.0625 116.482 86.0625 125.955 86.0625C131.633 86.0625 135.966 86.182 136.623 86.3613ZM100.077 90.1266C101.391 91.2322 101.81 92.8459 101.152 94.2205C100.883 94.8182 100.196 95.5951 99.6582 95.9238C98.702 96.5215 98.2238 96.5215 77.2162 96.5215C56.7166 96.5215 55.7006 96.4916 54.8041 95.9537C53.9076 95.4158 52.8916 93.7424 52.8916 92.7861C52.8916 92.0092 53.6984 90.6645 54.565 89.9771C55.3719 89.3496 55.5213 89.3496 77.276 89.3496H99.1502L100.077 90.1266Z" fill="white"/>
</g>
</svg>
