<svg width="237" height="237" viewBox="0 0 237 237" fill="none" xmlns="http://www.w3.org/2000/svg">
<g opacity="0.05">
<path d="M117.851 7.86914C114.935 8.60977 110.769 11.1094 108.732 13.285C107.714 14.3959 106.186 16.7104 105.399 18.423C104.057 21.2467 103.918 21.941 103.918 25.9682C103.918 30.1342 104.011 30.5508 105.631 33.8836C107.714 38.0959 110.398 40.6881 114.703 42.7248C117.527 44.0672 118.221 44.2061 122.202 44.2061C126.183 44.2061 126.877 44.0672 129.701 42.7248C134.006 40.6881 136.691 38.0959 138.774 33.8836C140.394 30.5508 140.486 30.1342 140.486 25.9219C140.486 21.7096 140.394 21.293 138.774 17.9602C135.626 11.6648 130.071 7.91543 123.221 7.59141C121.276 7.49883 118.869 7.6377 117.851 7.86914Z" fill="white"/>
<path d="M106.327 48.7887C102.207 50.3162 98.7818 53.8342 97.7172 57.6299C97.532 58.3705 94.8935 70.8223 91.8847 85.2645C86.4689 111.186 86.4226 111.51 86.9781 114.149C87.4873 116.371 87.9965 117.204 89.9869 119.194C92.9031 122.111 93.69 122.342 105.771 123.638C110.863 124.194 115.4 124.795 115.862 125.027C118.131 126.277 118.131 125.86 116.649 150.439C115.862 163.03 115.261 174.186 115.261 175.158V177.009L113.687 175.482C111.65 173.538 109.937 170.297 109.012 166.872C108.132 163.493 108.132 161.086 108.965 157.938L109.567 155.531H81.2383H52.9556L50.8263 159.327C42.124 174.973 38.8375 187.656 41.3371 195.803C42.9572 201.126 47.6324 205.153 53.4185 206.218L56.1496 206.727L56.7976 209.689C58.464 218.068 64.9908 224.965 73.5543 227.464C76.7945 228.437 82.9047 228.437 86.1449 227.464C93.7363 225.196 99.8002 219.456 102.253 212.096C102.809 210.523 103.226 208.625 103.226 207.838V206.449H135.304C162.8 206.449 167.521 206.357 168.678 205.755C170.206 204.922 170.345 204.922 170.345 205.523C170.345 206.542 172.381 211.263 173.168 212.05C174.603 213.485 177.103 213.207 178.677 211.448C179.649 210.384 180.065 210.152 180.251 210.662C180.343 211.032 180.713 212.143 181.037 213.161C182.056 216.587 183.861 219.595 186.638 222.465C191.314 227.326 196.776 229.594 203.858 229.594C213.023 229.547 220.476 224.872 224.688 216.54C227.095 211.819 227.836 205.292 226.54 200.524C226.308 199.784 226.447 199.506 226.956 199.506C227.373 199.506 228.113 198.95 228.669 198.21C229.548 197.145 229.641 196.59 229.41 194.414C227.836 180.388 215.939 169.094 201.821 168.168L197.794 167.89L198.164 166.224C198.859 163.308 198.627 158.54 197.655 155.439C196.22 150.81 193.628 147.246 189.184 143.728C187.055 142.061 184.417 139.469 183.306 138.034C178.677 131.785 175.436 122.851 174.279 113.269L174.002 110.631H178.769C182.796 110.631 183.907 110.446 185.852 109.52C188.629 108.224 189.879 106.928 191.128 104.15C191.915 102.391 192.101 101.095 192.101 95.9109C192.101 89.1064 191.777 87.8104 189.277 84.9404C186.314 81.6076 185.759 81.4688 170.113 81.4688H156.227L150.672 79.5709C140.025 76.0067 131.647 71.3777 126.787 66.3322C124.287 63.7863 124.148 63.5086 123.917 60.7775C123.5 55.8709 120.723 51.6123 116.511 49.4367C114.057 48.1869 108.827 47.8629 106.327 48.7887ZM120.769 87.44C128.036 93.1336 138.729 97.4385 150.116 99.29L151.829 99.5678V140.024V180.527H144.515H137.202L140.349 151.226C142.062 135.164 143.451 120.953 143.497 119.704C143.497 115.213 141.46 111.51 137.942 109.705C137.017 109.242 132.295 107.344 127.481 105.539C122.667 103.78 118.27 102.067 117.714 101.79C115.77 100.771 115.724 99.29 117.251 92.4393C118.038 88.9676 118.779 86.0977 118.871 86.0977C118.964 86.0977 119.843 86.6994 120.769 87.44ZM216.402 197.191C219.689 198.441 220.846 207.329 218.393 212.559C216.819 215.892 213.625 219.132 210.246 220.706C207.978 221.771 207.006 221.956 203.441 221.956C199.877 221.91 198.905 221.725 196.637 220.66C191.499 218.16 187.842 212.93 187.24 207.144C186.962 204.69 187.055 204.227 187.935 203.302C189.786 201.311 195.989 198.673 201.59 197.423C204.876 196.682 214.69 196.543 216.402 197.191ZM95.6804 208.116C94.9861 212.374 91.1441 217.281 86.7929 219.41C84.8025 220.382 83.8304 220.567 79.8496 220.567C75.6373 220.567 74.9892 220.429 72.5359 219.225C68.2773 217.049 64.9445 212.883 63.9261 208.347L63.5095 206.449H79.7107H95.9582L95.6804 208.116Z" fill="white"/>
<path d="M11.1089 59.8518C8.84077 60.5924 4.95249 64.5733 4.25815 66.934C3.47124 69.6651 3.47124 111.788 4.25815 114.519C4.99878 117.065 8.84077 120.907 11.3867 121.648C12.7753 122.064 20.5519 122.203 40.8265 122.203C72.3031 122.203 71.2384 122.296 74.6638 118.5C75.7747 117.297 76.932 115.445 77.2097 114.427C77.9966 111.834 77.9966 69.6188 77.2097 67.0266C76.932 66.0083 75.7747 64.1567 74.6638 62.9532C71.2384 59.1112 72.3494 59.25 40.5488 59.2963C21.6628 59.3426 12.2199 59.5278 11.1089 59.8518Z" fill="white"/>
<path d="M45.5027 130.35C44.3918 131.461 44.3455 131.785 44.577 134.377C44.9936 138.636 46.1045 141.737 48.3264 144.977L50.2705 147.894L80.6824 148.032L111.094 148.125V140.256C111.094 132.016 110.724 130.119 109.011 129.424C108.595 129.285 94.384 129.146 77.4885 129.146H46.7063L45.5027 130.35Z" fill="white"/>
</g>
</svg>
