<svg width="140" height="140" viewBox="0 0 140 140" fill="none" xmlns="http://www.w3.org/2000/svg">
<g opacity="0.11">
<path d="M35.9023 9.32422C34.5898 9.95312 33.4688 11.1836 32.8945 12.4961C32.6211 13.1797 32.5391 15.3672 32.5391 21.875V30.3516H70H107.488L107.406 21.5195L107.324 12.6602L106.559 11.5391C106.148 10.9102 105.301 10.0625 104.672 9.65234L103.523 8.88672L70.3008 8.80469L37.0508 8.75L35.9023 9.32422ZM89.168 17.8008C90.4805 18.4844 90.3711 20.6719 88.9766 21.3008C88.0195 21.7383 51.9805 21.7383 51.0508 21.3008C50.3672 21 49.7656 20.0156 49.7656 19.25C49.7656 19.0312 50.0664 18.5391 50.4492 18.1836L51.1055 17.5H69.8633C82.5781 17.5 88.8125 17.582 89.168 17.8008Z" fill="white"/>
<path d="M30.5156 35.875C30.1602 36.668 28.875 39.457 27.6445 42.082C26.4141 44.6797 25.4297 46.9219 25.4297 47.0586C25.4297 47.1953 44.5977 47.3047 70 47.3047C95.0469 47.3047 114.57 47.1953 114.57 47.0586C114.57 46.9492 113.285 44.0781 111.727 40.7148L108.883 34.5898L70.0273 34.5078L31.1445 34.4531L30.5156 35.875Z" fill="white"/>
<path d="M24.6641 87.418L24.7461 123.457L25.5117 125.098C26.4688 127.176 28.3828 129.145 30.4883 130.238L32.1289 131.113H70H107.871L109.512 130.238C111.617 129.145 113.531 127.176 114.488 125.098L115.254 123.457L115.336 87.418L115.391 51.4062H70H24.6094L24.6641 87.418ZM66.8828 61.9609C75.9336 64.5586 86.5703 72.4883 94.7188 82.7148C97.6719 86.4062 101.801 92.5312 102.867 94.7461C104.535 98.2734 103.441 102.184 100.188 104.18C98.9023 105 42.793 121.406 41.3711 121.406C38.3906 121.406 36.2031 119 36.4219 115.965C36.5312 114.516 37.1328 113.449 48.3438 94.6914L60.1562 74.9492L58.9531 73.8281C57.3125 72.3242 56.5469 70.6836 56.5195 68.6875C56.4922 64.7773 59.7734 61.3594 63.6016 61.2773C64.0938 61.25 65.5703 61.5508 66.8828 61.9609Z" fill="white"/>
<path d="M62.0689 65.7891C60.4283 66.9375 60.0728 68.9609 61.2212 70.4922C61.4947 70.9023 62.6705 71.4492 64.5298 72.0781C73.0884 74.9766 81.4556 81.8125 88.8111 91.9297L90.3423 94.0352L91.6548 92.832C92.3931 92.1758 93.4322 91.4922 94.0064 91.3281C94.5533 91.1641 95.1822 90.9727 95.3736 90.8906C96.0845 90.6719 90.233 83.3984 85.5845 78.7227C79.3775 72.4609 72.7056 68.0039 66.9634 66.2266C64.147 65.3516 62.8619 65.2422 62.0689 65.7891Z" fill="white"/>
<path d="M61.4421 80.5821C60.0202 82.961 55.6452 90.2891 51.7077 96.879C47.7429 103.469 44.571 108.938 44.6257 108.992C44.7624 109.102 86.3523 96.1133 86.5984 95.8672C86.6804 95.8125 85.8327 94.5274 84.739 93.0508C82.0319 89.4415 75.4421 82.879 72.1882 80.6094C69.5905 78.7774 65.1062 76.2891 64.3952 76.2891C64.1765 76.2891 62.864 78.2305 61.4421 80.5821ZM68.2234 81.211C68.8523 81.9219 69.1257 84.5469 68.6335 85.4493C67.9226 86.7618 66.1179 86.8165 65.2429 85.5313C64.5866 84.6016 64.6413 81.9219 65.3523 81.211C66.0905 80.4727 67.5671 80.5 68.2234 81.211ZM71.4499 92.586C73.2819 92.9141 74.1023 94.6915 73.0359 96.004C72.5984 96.5235 72.2702 96.6602 71.3132 96.6055C68.6335 96.5235 67.1023 95.1563 67.8679 93.5704C68.2507 92.7774 69.3718 92.0938 70.0007 92.2852C70.2194 92.3399 70.8757 92.4766 71.4499 92.586ZM59.8288 96.3047C61.0593 96.6602 61.6882 97.8907 61.196 98.9297C60.6491 100.051 59.7468 100.379 58.1062 100.023C55.8913 99.5586 54.989 98.2735 55.8093 96.7696C56.3562 95.7305 57.5319 95.5938 59.8288 96.3047Z" fill="white"/>
<path d="M94.9648 95.4023C93.8711 96.0859 93.5156 96.7421 93.5156 98.1093C93.5156 101.582 98.2461 102.238 99.5039 98.9296C100.461 96.3593 97.3164 93.9257 94.9648 95.4023Z" fill="white"/>
<path d="M64.8051 107.051L41.1527 114.488L40.8246 115.664C40.4145 117.031 40.5238 117.305 41.4535 117.305C42.0004 117.305 90.6449 103.168 91.0277 102.922C91.2191 102.758 89.059 99.5312 88.7582 99.5586C88.5941 99.5859 77.8207 102.949 64.8051 107.051Z" fill="white"/>
</g>
</svg>
